<?xml version="1.0" standalone="no"?>
<!DOCTYPE svg PUBLIC "-//W3C//DTD SVG 20010904//EN"
 "http://www.w3.org/TR/2001/REC-SVG-20010904/DTD/svg10.dtd">
<svg version="1.0" xmlns="http://www.w3.org/2000/svg"
 width="1024.000000pt" height="1536.000000pt" viewBox="0 0 1024.000000 1536.000000"
 preserveAspectRatio="xMidYMid meet">

<g transform="translate(0.000000,1536.000000) scale(0.100000,-0.100000)"
fill="#000000" stroke="none">
<path d="M2053 11455 c-87 -24 -154 -64 -226 -135 -96 -97 -120 -154 -163
-387 -18 -103 -34 -202 -34 -219 l0 -31 -118 -6 c-199 -11 -306 -59 -430 -191
-96 -103 -127 -177 -166 -396 -9 -47 -41 -224 -71 -395 -136 -753 -177 -1014
-177 -1135 1 -130 21 -213 71 -290 16 -25 113 -139 215 -255 153 -172 186
-214 181 -232 -3 -13 -21 -105 -41 -205 -19 -101 -57 -298 -84 -438 -73 -378
-80 -425 -80 -545 1 -272 54 -414 232 -615 41 -47 168 -193 284 -325 115 -132
254 -290 309 -351 55 -60 150 -166 210 -234 367 -412 560 -621 616 -666 130
-105 267 -177 407 -217 76 -21 90 -22 932 -25 612 -2 872 0 914 8 75 15 148
47 208 93 46 36 47 36 70 17 41 -31 142 -79 209 -97 57 -16 115 -18 549 -18
l485 0 57 28 57 28 132 -136 c113 -116 144 -141 208 -173 l75 -37 439 -3 c475
-3 501 -1 608 49 77 36 163 122 644 640 499 537 508 547 570 682 45 100 59
158 180 772 58 297 145 740 194 985 169 849 177 900 152 1059 -27 171 -96 285
-293 483 l-139 140 -5 61 c-10 123 -65 241 -169 367 -289 346 -774 874 -989
1075 -268 250 -441 364 -670 440 -159 54 -230 57 -1181 52 -737 -3 -850 -6
-925 -21 -109 -21 -227 -60 -314 -102 -38 -18 -72 -31 -77 -29 -4 3 -13 22
-19 43 -31 97 -100 188 -447 589 -182 209 -252 265 -378 298 -85 22 -1931 22
-2012 0z m1912 -435 c18 -11 36 -31 39 -44 8 -31 -6 -132 -43 -326 -53 -282
-65 -370 -52 -383 7 -7 59 -14 134 -17 106 -4 127 -8 161 -29 42 -26 66 -71
66 -123 0 -59 -72 -453 -85 -463 -6 -6 -35 -8 -64 -7 -50 4 -51 4 -51 37 0 18
13 107 30 197 36 195 37 233 11 248 -11 6 -90 10 -185 10 -91 0 -167 4 -170 9
-7 11 35 302 81 554 29 159 33 200 23 212 -11 13 -113 15 -807 15 -519 0 -801
-4 -813 -10 -11 -6 -24 -27 -29 -48 -14 -53 -78 -405 -104 -579 l-23 -148
-281 -5 c-356 -6 -328 9 -365 -191 -15 -79 -45 -250 -67 -379 -23 -129 -63
-363 -90 -520 -63 -362 -67 -399 -48 -425 14 -19 30 -20 252 -25 268 -6 265
-5 265 -87 0 -43 -40 -290 -85 -523 -13 -69 -47 -251 -75 -405 -28 -154 -69
-370 -90 -480 -53 -272 -64 -355 -57 -445 12 -154 36 -190 386 -583 224 -251
257 -279 386 -320 l70 -22 965 0 c1101 0 1021 -6 1105 87 25 28 45 54 45 59 0
20 40 6 91 -32 66 -49 118 -77 184 -98 43 -13 193 -16 1115 -20 l1065 -6 -2
-61 c0 -33 -24 -186 -51 -340 -63 -346 -68 -392 -48 -419 14 -19 26 -20 309
-20 l294 0 35 25 c38 27 517 478 737 694 190 186 247 266 284 396 14 49 74
345 112 555 16 90 81 435 125 660 16 83 50 258 75 390 25 132 62 319 81 415
19 96 34 194 34 216 0 55 -24 84 -80 95 -25 4 -252 8 -505 9 -286 0 -474 4
-497 11 -67 18 -65 46 34 534 63 311 73 406 49 477 -14 42 -75 128 -148 210
-26 30 -100 116 -163 192 -221 267 -245 288 -358 337 -75 33 -245 39 -1032 35
-693 -4 -728 -5 -803 -25 -156 -41 -243 -102 -537 -374 -180 -166 -198 -191
-231 -322 -18 -69 -128 -582 -166 -770 -28 -142 -1 -211 106 -268 l34 -18 -29
-30 c-26 -28 -73 -59 -89 -59 -17 0 -110 101 -131 143 -40 78 -41 148 -4 322
17 83 44 213 60 290 36 178 117 522 131 556 5 14 31 51 57 82 56 67 362 351
447 415 76 57 214 123 330 159 l90 28 815 3 815 3 90 -26 c110 -31 202 -76
260 -127 24 -21 94 -100 156 -176 63 -75 168 -200 234 -277 137 -160 155 -186
184 -272 34 -101 29 -186 -30 -465 -74 -353 -85 -424 -70 -442 11 -13 82 -15
479 -19 332 -2 478 -7 504 -16 82 -26 128 -100 128 -202 0 -45 -54 -350 -119
-669 -16 -80 -32 -170 -36 -200 -4 -30 -9 -58 -11 -61 -2 -3 -24 -114 -48
-245 -25 -132 -66 -340 -90 -463 -25 -123 -59 -300 -76 -395 -36 -196 -58
-273 -107 -368 -38 -72 -81 -119 -409 -437 -104 -102 -286 -280 -404 -397
-118 -117 -233 -221 -255 -233 -38 -20 -53 -21 -375 -21 -306 0 -339 2 -376
19 -23 10 -45 25 -49 31 -16 27 -4 150 45 443 27 167 50 312 50 324 0 18 -8
21 -67 26 -38 4 -482 7 -989 7 -886 0 -924 1 -999 20 -42 11 -102 33 -133 50
-31 16 -61 30 -69 30 -7 0 -35 -16 -62 -35 -95 -69 -29 -65 -1125 -65 -1095 0
-1043 -3 -1181 64 -93 46 -168 115 -345 321 -80 93 -188 216 -238 273 -209
237 -228 341 -141 792 17 85 41 214 54 285 13 72 42 229 64 350 22 121 60 328
85 461 25 133 46 257 46 277 l0 35 -202 4 c-193 3 -205 4 -241 27 -48 30 -77
86 -77 150 0 27 12 116 26 198 14 81 43 247 64 368 21 121 46 263 55 315 119
696 117 688 188 721 37 16 68 19 278 19 173 0 240 3 252 13 17 12 41 124 119
562 24 135 43 179 88 202 19 10 220 13 899 13 859 0 874 0 906 -20z m-567
-479 c2 -5 -17 -119 -42 -253 -25 -134 -56 -303 -69 -375 l-24 -133 224 0 224
0 -7 -37 c-7 -40 -56 -298 -120 -625 l-38 -198 -206 0 c-113 0 -215 -3 -227
-6 -16 -4 -26 -18 -32 -43 -10 -41 -77 -389 -151 -786 -81 -435 -199 -1052
-206 -1077 -5 -17 8 -18 180 -18 102 0 186 -3 186 -7 0 -3 -22 -121 -49 -262
-27 -141 -54 -289 -60 -328 -6 -40 -16 -95 -22 -123 l-11 -50 -367 0 c-279 0
-371 3 -383 13 -9 6 -102 113 -207 236 -126 148 -191 232 -191 247 0 12 6 53
14 91 8 37 35 183 61 323 25 140 54 302 65 360 11 58 33 179 50 270 17 91 37
197 45 235 8 39 30 165 50 280 20 116 54 304 76 419 22 114 38 211 35 213 -4
4 -465 15 -545 13 -10 0 -12 11 -7 48 8 53 61 348 112 620 19 100 34 185 34
187 0 3 131 5 290 5 160 0 290 2 290 5 0 6 9 52 50 260 16 84 65 355 85 472 3
18 12 33 22 35 43 8 868 -2 871 -11z m3505 -783 c8 -13 101 -124 206 -248 105
-124 191 -232 191 -241 0 -9 -18 -103 -41 -210 -22 -107 -64 -318 -94 -469
-30 -151 -66 -331 -80 -400 -14 -69 -57 -285 -95 -480 -39 -195 -93 -465 -120
-600 -50 -249 -120 -612 -140 -730 -6 -36 -16 -86 -22 -112 l-10 -48 -399 0
c-219 0 -399 3 -399 8 0 4 7 43 15 87 27 144 29 168 17 164 -7 -2 -72 -61
-146 -131 l-134 -128 -494 0 -493 0 -97 113 c-265 308 -308 361 -308 376 0 20
46 277 117 641 89 462 101 524 108 541 3 9 126 122 273 250 l266 233 607 -2
c499 -1 610 1 621 12 12 11 77 331 113 553 11 69 11 71 -9 75 -12 1 -170 2
-353 0 l-331 -3 -12 -72 c-7 -39 -19 -110 -28 -157 l-17 -85 -427 -3 c-490 -3
-439 -16 -413 104 8 38 39 202 70 364 30 162 58 305 60 318 5 22 7 22 175 22
152 0 169 2 174 18 3 9 15 67 26 127 12 61 23 116 25 123 4 9 171 12 794 12
l789 0 15 -22z m1503 -1761 c4 -12 -89 -510 -132 -704 l-16 -73 -309 0 c-170
0 -309 3 -309 6 0 3 13 74 29 157 17 84 49 253 72 377 23 124 46 231 52 238
14 18 605 18 613 -1z m-4366 -811 c0 -29 -47 -309 -90 -541 -16 -88 -39 -216
-50 -284 -12 -68 -23 -128 -26 -133 -3 -4 -163 -8 -356 -8 l-350 0 5 23 c3 12
15 76 27 142 12 66 50 274 86 462 35 189 64 347 64 353 0 6 121 10 345 10
l345 0 0 -24z m4156 -333 c-3 -10 -37 -187 -76 -393 -39 -206 -74 -385 -78
-397 -4 -12 -159 -175 -345 -363 l-338 -340 -125 0 c-124 0 -124 0 -124 24 0
21 20 151 36 231 5 22 65 89 226 251 200 201 221 226 229 265 4 24 8 56 9 72
l0 27 -101 0 -102 0 7 43 c11 79 104 566 111 585 3 9 81 12 340 12 316 0 336
-1 331 -17z"/>
<path d="M5315 7598 c-12 -54 -95 -498 -103 -550 l-9 -58 391 0 392 0 47 263
c26 144 50 286 54 315 l6 52 -386 0 -387 0 -5 -22z"/>
</g>
</svg>
